<mxfile host="65bd71144e">
    <diagram id="IDt3vIHaApVI1ZcxXzFI" name="Page-1">
        <mxGraphModel dx="693" dy="680" grid="1" gridSize="10" guides="1" tooltips="1" connect="1" arrows="1" fold="1" page="1" pageScale="1" pageWidth="850" pageHeight="1100" math="0" shadow="0">
            <root>
                <mxCell id="0"/>
                <mxCell id="1" parent="0"/>
                <mxCell id="2" value="Article" style="text;html=1;strokeColor=default;fillColor=none;align=center;verticalAlign=middle;whiteSpace=wrap;rounded=0;labelBorderColor=none;strokeWidth=4;" vertex="1" parent="1">
                    <mxGeometry x="320" y="320" width="90" height="40" as="geometry"/>
                </mxCell>
                <mxCell id="3" value="Author" style="text;html=1;strokeColor=default;fillColor=none;align=center;verticalAlign=middle;whiteSpace=wrap;rounded=0;strokeWidth=1;labelBorderColor=none;" vertex="1" parent="1">
                    <mxGeometry x="160" y="240" width="70" height="40" as="geometry"/>
                </mxCell>
                <mxCell id="4" value="Magazine" style="text;html=1;strokeColor=default;fillColor=none;align=center;verticalAlign=middle;whiteSpace=wrap;rounded=0;labelBorderColor=none;" vertex="1" parent="1">
                    <mxGeometry x="485" y="240" width="80" height="40" as="geometry"/>
                </mxCell>
                <mxCell id="5" value="author attr&lt;br&gt;magazine attr" style="text;html=1;strokeColor=none;fillColor=none;align=center;verticalAlign=middle;whiteSpace=wrap;rounded=0;" vertex="1" parent="1">
                    <mxGeometry x="290" y="380" width="145" height="50" as="geometry"/>
                </mxCell>
                <mxCell id="6" value="article()&lt;br&gt;magazine()" style="text;html=1;strokeColor=none;fillColor=none;align=center;verticalAlign=middle;whiteSpace=wrap;rounded=0;" vertex="1" parent="1">
                    <mxGeometry x="80" y="280" width="160" height="50" as="geometry"/>
                </mxCell>
                <mxCell id="7" value="article()&lt;br&gt;author()" style="text;html=1;strokeColor=none;fillColor=none;align=center;verticalAlign=middle;whiteSpace=wrap;rounded=0;" vertex="1" parent="1">
                    <mxGeometry x="495" y="290" width="60" height="30" as="geometry"/>
                </mxCell>
                <mxCell id="9" value="" style="endArrow=classic;html=1;exitX=0;exitY=1;exitDx=0;exitDy=0;" edge="1" parent="1" source="4">
                    <mxGeometry width="50" height="50" relative="1" as="geometry">
                        <mxPoint x="490" y="265" as="sourcePoint"/>
                        <mxPoint x="420" y="320" as="targetPoint"/>
                    </mxGeometry>
                </mxCell>
                <mxCell id="10" value="" style="endArrow=classic;html=1;" edge="1" parent="1">
                    <mxGeometry width="50" height="50" relative="1" as="geometry">
                        <mxPoint x="230" y="285" as="sourcePoint"/>
                        <mxPoint x="310" y="320" as="targetPoint"/>
                    </mxGeometry>
                </mxCell>
                <mxCell id="11" value="Apt&amp;nbsp;" style="text;html=1;strokeColor=default;fillColor=none;align=center;verticalAlign=middle;whiteSpace=wrap;rounded=0;labelBorderColor=none;strokeWidth=4;" vertex="1" parent="1">
                    <mxGeometry x="335" y="530" width="60" height="30" as="geometry"/>
                </mxCell>
                <mxCell id="12" value="Pet" style="text;html=1;strokeColor=default;fillColor=none;align=center;verticalAlign=middle;whiteSpace=wrap;rounded=0;labelBorderColor=none;strokeWidth=1;" vertex="1" parent="1">
                    <mxGeometry x="190" y="470" width="60" height="30" as="geometry"/>
                </mxCell>
                <mxCell id="13" value="Procedure" style="text;html=1;strokeColor=default;fillColor=none;align=center;verticalAlign=middle;whiteSpace=wrap;rounded=0;labelBorderColor=none;strokeWidth=1;" vertex="1" parent="1">
                    <mxGeometry x="495" y="470" width="60" height="30" as="geometry"/>
                </mxCell>
                <mxCell id="14" value="pet attr&lt;br&gt;procedure attr" style="text;html=1;strokeColor=none;fillColor=none;align=center;verticalAlign=middle;whiteSpace=wrap;rounded=0;labelBorderColor=none;strokeWidth=1;" vertex="1" parent="1">
                    <mxGeometry x="320" y="570" width="92.5" height="50" as="geometry"/>
                </mxCell>
                <mxCell id="15" value="apt()&lt;br&gt;procedure()" style="text;html=1;strokeColor=none;fillColor=none;align=center;verticalAlign=middle;whiteSpace=wrap;rounded=0;labelBorderColor=none;strokeWidth=1;" vertex="1" parent="1">
                    <mxGeometry x="160" y="520" width="92.5" height="50" as="geometry"/>
                </mxCell>
                <mxCell id="16" value="apt()&lt;br&gt;pet()" style="text;html=1;strokeColor=none;fillColor=none;align=center;verticalAlign=middle;whiteSpace=wrap;rounded=0;labelBorderColor=none;strokeWidth=1;" vertex="1" parent="1">
                    <mxGeometry x="472.5" y="510" width="92.5" height="50" as="geometry"/>
                </mxCell>
            </root>
        </mxGraphModel>
    </diagram>
</mxfile>